<svg height="499pt" viewBox="0 -21 499.38493 499" width="499pt" xmlns="http://www.w3.org/2000/svg"><path d="m417.871094 228.785156c-71.855469 71.855469-203.648438 56.570313-203.648438 56.570313s-15.285156-131.792969 56.570313-203.648438 220.617187-73.535156 220.617187-73.535156-1.707031 148.757813-73.539062 220.613281zm0 0" fill="#4e901e"/><path d="m81.535156 252.785156c71.855469 71.855469 203.648438 56.570313 203.648438 56.570313s15.289062-131.792969-56.566406-203.648438c-71.855469-71.855469-220.617188-73.535156-220.617188-73.535156s1.703125 148.757813 73.535156 220.613281zm0 0" fill="#91cc04"/><g fill="#231f20"><path d="m497.039062 2.539062c-1.503906-1.539062-3.582031-2.386718-5.734374-2.34375-6.199219.070313-152.800782 2.558594-226.121094 75.863282-9.273438 9.351562-17.421875 19.757812-24.277344 31.007812-2.136719-2.382812-4.335938-4.722656-6.609375-7.015625-73.34375-73.320312-220-75.777343-226.191406-75.878906-2.160157-.046875-4.242188.800781-5.753907 2.34375-1.527343 1.523437-2.3749995 3.601563-2.351562 5.757813.0742188 6.199218 2.5625 152.855468 75.878906 226.175781 52.386719 52.386719 133.601563 60.367187 178.289063 60.367187 13.023437 0 22.855469-.671875 28-1.125l33.847656 33.847656c3.140625 3.03125 8.128906 2.988282 11.214844-.097656 3.085937-3.085937 3.128906-8.078125.097656-11.214844l-33.847656-33.847656c.28125-3.265625.648437-8.359375.886719-14.960937 39.707031-5.398438 92-19.792969 129.121093-57 73.335938-73.34375 75.816407-219.929688 75.894531-226.144531.023438-2.148438-.820312-4.214844-2.34375-5.734376zm-282.773437 224.582032 5.34375-58.453125c.402344-4.402344-2.839844-8.296875-7.242187-8.699219-4.398438-.402344-8.292969 2.839844-8.695313 7.242188l-4.128906 45.191406-19.199219-19.199219 5.359375-58.488281c.402344-4.417969-2.855469-8.324219-7.273437-8.726563-4.417969-.398437-8.324219 2.859375-8.726563 7.277344l-4.125 45.191406-24.882813-24.871093 5.34375-58.464844c.402344-4.398438-2.84375-8.292969-7.242187-8.691406-4.402344-.398438-8.292969 2.84375-8.691406 7.246093l-4.136719 45.183594-44.464844-44.464844c-2.007812-2.082031-4.980468-2.914062-7.78125-2.183593-2.796875.734374-4.980468 2.917968-5.710937 5.714843-.734375 2.796875.101562 5.773438 2.179687 7.78125l44.464844 44.464844-45.183594 4.132813c-4.417968.199218-7.839844 3.9375-7.644531 8.355468.195313 4.421875 3.9375 7.84375 8.355469 7.644532h.738281l58.460937-5.34375 24.875 24.882812-45.160156 4.03125c-4.417968.199219-7.839844 3.941406-7.640625 8.359375s3.941407 7.839844 8.359375 7.640625h.726563l58.472656-5.34375 19.199219 19.199219-45.191406 4.128906c-4.417969.199219-7.835938 3.941406-7.640626 8.359375.199219 4.417969 3.945313 7.839844 8.363282 7.640625h.734375l58.457031-5.34375 64 64c-37.289062 1.207031-126.519531-2.066406-179.769531-55.320313-59.0625-59.152343-69.160157-174.65625-70.839844-206.707031 32.039063 1.671875 147.488281 11.730469 206.632813 70.882813 53.246093 53.246094 56.511718 142.480468 55.320312 179.765625zm197.933594-4c-33.300781 33.375-80.71875 46.816406-117.597657 52.113281-.128906-19.222656-1.792968-38.402344-4.976562-57.359375h.078125c2.121094 0 4.15625-.84375 5.65625-2.34375l1.097656-1.097656 58.457031 5.34375h.734376c4.417968.199218 8.160156-3.222656 8.359374-7.640625.199219-4.417969-3.222656-8.160157-7.640624-8.359375l-45.191407-4.128906 19.199219-19.199219 58.53125 5.425781h.726562c4.417969.199219 8.160157-3.222656 8.359376-7.640625.199218-4.417969-3.222657-8.160156-7.640626-8.359375l-45.191406-4.128906 24.871094-24.878906 58.464844 5.34375h.738281c4.417969.195312 8.15625-3.226563 8.355469-7.644532.195312-4.417968-3.226563-8.160156-7.644532-8.355468l-45.183593-4.136719 44.460937-44.464844c2.082032-2.007813 2.914063-4.980469 2.183594-7.78125-.730469-2.796875-2.917969-4.980469-5.714844-5.710937-2.796875-.734376-5.769531.101562-7.777344 2.179687l-44.464843 44.464844-4.136719-45.183594c-.398438-4.402344-4.292969-7.644531-8.691406-7.242187-4.402344.398437-7.644532 4.289062-7.246094 8.691406l5.34375 58.460937-24.878906 24.875-4.136719-45.097656c-.398437-4.417969-4.304687-7.675781-8.722656-7.277344-4.417969.402344-7.675781 4.308594-7.277344 8.726563l5.34375 58.472656-19.199219 19.199219-4.128906-45.191407c-.398438-4.402343-4.292969-7.644531-8.695312-7.242187-4.398438.402344-7.640626 4.296875-7.238282 8.695313l4.375 47.839843c-6.371094-25.789062-17.425781-50.195312-32.609375-72 6.789063-12.109375 15.164063-23.257812 24.914063-33.140625 59.078125-59.074218 174.542968-69.144531 206.601562-70.824218-1.675781 32.039062-11.761718 147.445312-70.867187 206.582031zm0 0"/><path d="m193.703125 385.875c4.417969 0 8-3.582031 8-8s-3.582031-8-8-8h-48c-4.417969 0-8 3.582031-8 8v72c0 4.417969 3.582031 8 8 8h48c4.417969 0 8-3.582031 8-8s-3.582031-8-8-8h-40v-24h16c4.417969 0 8-3.582031 8-8s-3.582031-8-8-8h-16v-16zm0 0"/><path d="m273.703125 385.875c4.417969 0 8-3.582031 8-8s-3.582031-8-8-8h-48c-4.417969 0-8 3.582031-8 8v72c0 4.417969 3.582031 8 8 8h48c4.417969 0 8-3.582031 8-8s-3.582031-8-8-8h-40v-56zm0 0"/><path d="m353.703125 369.875h-48c-4.417969 0-8 3.582031-8 8v72c0 4.417969 3.582031 8 8 8h48c4.417969 0 8-3.582031 8-8v-72c0-4.417969-3.582031-8-8-8zm-8 72h-32v-56h32zm0 0"/></g></svg>