<svg height="499pt" viewBox="-29 0 499 499.24781" width="499pt" xmlns="http://www.w3.org/2000/svg"><path d="m232.125 209.445312c0 61.855469-50.144531 112-112 112s-112-50.144531-112-112c0-61.855468 112-201.601562 112-201.601562s112 139.746094 112 201.601562zm0 0" fill="#83d8f4"/><path d="m360.292969 372.359375c-71.855469 71.855469-203.648438 56.566406-203.648438 56.566406s-15.289062-131.792969 56.566407-203.648437c71.855468-71.855469 220.617187-73.535156 220.617187-73.535156s-1.703125 148.757812-73.535156 220.617187zm0 0" fill="#91cc04"/><g fill="#231f20"><path d="m439.484375 146.085938c-1.527344-1.519532-3.597656-2.363282-5.753906-2.34375-5.414063.054687-117.910157 1.976562-195.199219 51.269531-13.167969-67.964844-107.847656-186.78125-112.167969-192.175781-1.570312-1.800782-3.847656-2.835938-6.238281-2.835938-2.394531 0-4.667969 1.035156-6.242188 2.835938-4.648437 5.808593-113.757812 142.699218-113.757812 206.609374-.09375 37.984376 17.847656 73.757813 48.34375 96.402344 30.496094 22.640625 69.929688 29.46875 106.261719 18.398438-6.933594 33.425781-9.089844 67.664062-6.398438 101.695312l-59.566406 59.550782c-2.082031 2.011718-2.914063 4.984374-2.183594 7.78125.734375 2.796874 2.917969 4.980468 5.714844 5.714843 2.796875.730469 5.769531-.101562 7.78125-2.183593l59.550781-59.550782c5.175782.457032 15 1.136719 28 1.136719 44.65625 0 125.910156-8 178.296875-60.378906 73.320313-73.316407 75.804688-220 75.878907-226.183594.027343-2.148437-.808594-4.21875-2.320313-5.742187zm-280.046875 159.511718c-12.460938 5.175782-25.820312 7.84375-39.3125 7.847656-57.410156-.066406-103.933594-46.589843-104-104 0-50.152343 80.671875-158.398437 104-188.609374 22.71875 29.441406 99.765625 132.800781 103.800781 184.488281-5.753906 4.414062-11.222656 9.191406-16.371093 14.296875-23.054688 24.128906-39.609376 53.707031-48.117188 85.976562zm195.199219 61.105469c-53.257813 53.261719-142.511719 56.535156-179.769531 55.328125l64-64 58.457031 5.34375c.246093 0 .496093.039062.734375.039062 4.421875.199219 8.164062-3.222656 8.363281-7.640624.195313-4.417969-3.222656-8.160157-7.640625-8.359376l-45.191406-4.136718 19.199218-19.199219 58.535157 5.367187h.726562c4.417969.199219 8.164063-3.222656 8.363281-7.640624.195313-4.417969-3.222656-8.160157-7.640624-8.359376l-45.203126-4.128906 24.882813-24.878906 58.464844 5.34375h.734375c4.246094-.042969 7.71875-3.398438 7.910156-7.644531.1875-4.242188-2.972656-7.894531-7.199219-8.316407l-45.191406-4.136718 44.472656-44.46875c2.078125-2.011719 2.914063-4.984375 2.179688-7.78125-.730469-2.796875-2.914063-4.980469-5.710938-5.714844-2.796875-.730469-5.773437.101562-7.78125 2.183594l-44.464843 44.464844-4.136719-45.195313c-.398438-4.398437-4.292969-7.640625-8.695313-7.238281-4.398437.402344-7.640625 4.296875-7.238281 8.695312l5.34375 58.457032-24.878906 24.878906-4.136719-45.128906c-.402344-4.417969-4.308594-7.671876-8.730469-7.269532-4.417969.402344-7.671875 4.308594-7.269531 8.726563l5.34375 58.464843-19.199219 19.199219-4.128906-45.191406c-.402344-4.402344-4.296875-7.640625-8.695313-7.238281-4.402343.398437-7.644531 4.292968-7.242187 8.695312l5.34375 58.453125-64 64c-1.222656-37.253906 1.992187-126.398437 55.328125-179.78125 5.679688-5.679687 18.808594-15.898437 18.9375-16 62.0625-44.945312 158.808594-53.328125 187.703125-54.847656-1.679687 32.0625-11.734375 147.511719-70.886719 206.65625zm0 0"/><path d="m42.890625 192.941406c4.140625 1.542969 8.742187-.558594 10.289063-4.695312 1.769531-4.730469 4-9.90625 6.550781-15.394532 1.34375-2.597656 1.160156-5.726562-.480469-8.148437-1.640625-2.425781-4.472656-3.761719-7.386719-3.484375-2.914062.28125-5.445312 2.128906-6.59375 4.820312-2.777343 5.886719-5.160156 11.46875-7.074219 16.605469-1.546874 4.140625.554688 8.75 4.695313 10.296875zm0 0"/><path d="m120.125 281.445312c-39.746094-.042968-71.957031-32.253906-72-72 0-4.417968-3.582031-8-8-8s-8 3.582032-8 8c.054688 48.578126 39.421875 87.941407 88 88 4.417969 0 8-3.582031 8-8 0-4.417968-3.582031-8-8-8zm0 0"/></g></svg>