<svg height="512pt" viewBox="0 0 512.00475 512" width="512pt" xmlns="http://www.w3.org/2000/svg"><path d="m255.90625 22.46875c-9.113281 0-17.601562 2.664062-24.75 7.234375-8.3125-11.90625-22.105469-19.699219-37.730469-19.699219-19.09375 0-35.46875 11.632813-42.425781 28.199219-8.433594-9.636719-20.8125-15.734375-34.625-15.734375-25.40625 0-46 20.59375-46 46 0 19.53125 12.171875 36.21875 29.34375 42.890625 5.164062 2.007813 10.78125 3.109375 16.65625 3.109375 19.09375 0 35.46875-11.636719 42.425781-28.199219 8.433594 9.636719 20.8125 15.730469 34.625 15.730469 9.117188 0 17.605469-2.660156 24.75-7.230469 8.3125 11.902344 22.109375 19.699219 37.730469 19.699219 11.253906 0 21.5625-4.042969 29.554688-10.75 10.054687-8.4375 16.445312-21.097656 16.445312-35.25 0-25.40625-20.59375-46-46-46zm0 0" fill="#d8d8e4"/><path d="m10.007812 170h491.996094v172h-491.996094zm0 0" fill="#ffb954"/><path d="m10.007812 502v-170.4375c19.457032 0 36.96875-8.308594 49.199219-21.5625 12.230469 13.253906 29.742188 21.5625 49.199219 21.5625s36.96875-8.308594 49.199219-21.5625c12.234375 13.253906 29.742187 21.5625 49.199219 21.5625 19.457031 0 36.96875-8.308594 49.203124-21.5625 12.230469 13.253906 29.742188 21.5625 49.199219 21.5625s36.96875-8.308594 49.199219-21.5625c12.230469 13.253906 29.742188 21.5625 49.199219 21.5625s36.96875-8.308594 49.199219-21.5625c12.230468 13.253906 29.742187 21.5625 49.199218 21.5625v170.4375zm0 0" fill="#ade5ff"/><path d="m153.953125 464.246094-33.9375 33.941406c-5.089844 5.085938-13.339844 5.085938-18.425781 0l-53.558594-53.558594c-5.085938-5.089844-5.085938-13.335937 0-18.425781l33.941406-33.941406c5.085938-5.085938 13.335938-5.085938 18.425782 0l53.554687 53.558593c5.089844 5.085938 5.089844 13.335938 0 18.425782zm0 0" fill="#ffb954"/><path d="m52.382812 379.160156-17.457031 17.453125c-2.410156 2.410157-2.410156 6.316407 0 8.726563l16.984375 16.984375 26.183594-26.183594-16.984375-16.980469c-2.410156-2.410156-6.316406-2.410156-8.726563 0zm0 0" fill="#4dbaf6"/><path d="m352.683594 474.523438v-19.101563c0-15.175781 12.300781-27.476563 27.476562-27.476563h46.84375c15.175782 0 27.480469 12.300782 27.480469 27.476563v19.101563c0 15.175781-12.304687 27.476562-27.480469 27.476562h-46.839844c-15.175781.003906-27.480468-12.300781-27.480468-27.476562zm0 0" fill="#ffb954"/><path d="m484.671875 477.316406v-24.6875c0-3.40625-2.761719-6.167968-6.167969-6.167968h-24.019531v37.027343h24.019531c3.40625 0 6.167969-2.761719 6.167969-6.171875zm0 0" fill="#4dbaf6"/><g fill="#fff"><path d="m233.371094 401.261719c0 12.367187-10.027344 22.394531-22.398438 22.394531-12.367187 0-22.394531-10.027344-22.394531-22.394531 0-12.371094 10.027344-22.394531 22.394531-22.394531 12.371094 0 22.398438 10.023437 22.398438 22.394531zm0 0"/><path d="m217.007812 256.128906h-36.667968v-45.632812l25.261718 16.503906zm0 0"/><path d="m407.386719 238.015625 24.613281-24.617187 24.613281 24.617187-24.613281 24.613281zm0 0"/></g><path d="m193.425781 170c-16.871093-29.152344-25.691406-61.625-25.691406-94.597656v-2.132813h-61.019531v2.132813c0 32.972656-8.820313 65.445312-25.695313 94.597656zm0 0" fill="#898998"/><path d="m106.714844 73.269531v2.132813c0 11.390625-1.078125 22.714844-3.152344 33.867187h67.320312c-2.070312-11.152343-3.148437-22.476562-3.148437-33.867187v-2.132813zm0 0" fill="#fff"/><path d="m305.832031 170c-16.875-29.152344-25.691406-61.625-25.691406-94.597656v-2.132813h-61.019531v2.132813c0 32.972656-8.820313 65.445312-25.695313 94.597656zm0 0" fill="#898998"/><path d="m219.121094 73.269531v2.132813c0 11.390625-1.078125 22.714844-3.152344 33.867187h67.320312c-2.070312-11.152343-3.148437-22.476562-3.148437-33.867187v-2.132813zm0 0" fill="#fff"/><path d="m502.003906 321.5625c-15.835937 0-31.09375-6.6875-41.851562-18.34375-1.894532-2.050781-4.558594-3.21875-7.347656-3.21875-2.792969 0-5.457032 1.167969-7.351563 3.21875-10.757813 11.65625-26.011719 18.34375-41.847656 18.34375-15.839844 0-31.09375-6.6875-41.851563-18.34375-1.894531-2.050781-4.558594-3.21875-7.351562-3.21875-2.789063 0-5.453125 1.167969-7.347656 3.21875-10.757813 11.65625-26.015626 18.34375-41.851563 18.34375-15.839844 0-31.09375-6.6875-41.851563-18.34375-1.894531-2.050781-4.558593-3.21875-7.347656-3.21875-2.792968 0-5.457031 1.167969-7.351562 3.21875-10.757813 11.65625-26.011719 18.34375-41.851563 18.34375-15.835937 0-31.089843-6.6875-41.851562-18.34375-1.894531-2.050781-4.558594-3.21875-7.347657-3.21875-2.792968 0-5.457031 1.167969-7.351562 3.21875-10.757812 11.65625-26.011719 18.34375-41.847656 18.34375-15.839844 0-31.09375-6.6875-41.851563-18.34375-1.894531-2.050781-4.558593-3.21875-7.351562-3.21875-2.789063 0-5.453125 1.167969-7.347657 3.21875-10.757812 11.65625-26.015624 18.34375-41.851562 18.34375-5.523438 0-10 4.476562-10 10s4.476562 10 10 10c18.011719 0 35.460938-6.394531 49.199219-17.808594 13.738281 11.414063 31.1875 17.808594 49.199219 17.808594 18.011718 0 35.460937-6.394531 49.199218-17.808594 13.738282 11.414063 31.1875 17.808594 49.199219 17.808594s35.460937-6.394531 49.199219-17.808594c13.738281 11.414063 31.1875 17.808594 49.199218 17.808594 18.011719 0 35.460938-6.394531 49.199219-17.808594 13.742188 11.414063 31.191407 17.808594 49.203125 17.808594 18.007813 0 35.457032-6.394531 49.195313-17.808594 13.742187 11.414063 31.1875 17.808594 49.199219 17.808594 5.523437 0 10-4.476562 10-10s-4.464844-10-9.988282-10zm0 0"/><path d="m502.003906 160h-12.816406v-27.371094l19.886719-19.890625c3.90625-3.902343 3.90625-10.234375 0-14.140625-3.902344-3.90625-10.234375-3.90625-14.140625 0l-5.746094 5.742188v-19.339844c0-5.519531-4.476562-10-10-10-5.519531 0-10 4.480469-10 10v38.859375l-.929688-.929687c-3.90625-3.902344-10.234374-3.902344-14.140624 0-3.90625 3.90625-3.90625 10.238281 0 14.144531l15 14.996093c.023437.023438.046874.042969.070312.066407v7.863281h-73.515625v-36.671875s0-.003906 0-.007813v-6.832031l7.664063-7.664062 7.175781 7.175781c1.949219 1.949219 4.511719 2.925781 7.070312 2.925781 2.558594 0 5.117188-.976562 7.070313-2.925781 3.90625-3.90625 3.90625-10.238281 0-14.144531l-6.871094-6.867188h17.554688c5.523437 0 10-4.480469 10-10 0-5.523437-4.476563-10-10-10h-22.308594c-2.652344 0-5.195313 1.050781-7.070313 2.925781l-10.285156 10.289063v-19.003906l16.792969-9.175781c4.847656-2.648438 6.628906-8.726563 3.980468-13.570313-2.648437-4.847656-8.722656-6.632813-13.570312-3.980469l-7.203125 3.9375v-9.0625c0-5.523437-4.480469-10-10-10-5.523437 0-10 4.476563-10 10v25.910156.078126 35.84375l-9.335937-9.335938-10.007813-25.785156c-2-5.148438-7.792969-7.699219-12.941406-5.703125-5.148438 2-7.703125 7.792969-5.703125 12.941406l5.484375 14.128906h-7.496094c-5.519531 0-10 4.480469-10 10 0 5.523438 4.480469 10 10 10h17.960937l22.039063 22.039063v32.535156h-63.96875c-8.535156-15.863281-14.625-32.777344-18.113281-50.128906 11.660156-10.613282 18.316406-25.570313 18.316406-41.402344 0-30.878906-25.121094-56-56-56-7.699219 0-15.253906 1.578125-22.238281 4.605469-10.472657-10.816407-24.972657-17.07031275-40.242188-17.07031275-18.019531 0-34.554687 8.55468775-44.960937 22.58593775-9.324219-6.527344-20.507813-10.121094-32.089844-10.121094-30.878906 0-56 25.121094-56 56 0 21.511719 11.972656 40.628906 30.902344 50.070312-3.628906 14.3125-9.023438 28.253907-16.128906 41.460938h-28.140626c-5.523437 0-10 4.480469-10 10 0 5.523438 4.476563 10 10 10h454.996094c5.523438 0 10-4.476562 10-10 0-5.519531-4.476562-10-10-10zm-421.628906-91.53125c0-19.851562 16.148438-36 36-36 10.375 0 20.25 4.492188 27.097656 12.316406 2.273438 2.597656 5.71875 3.84375 9.125 3.289063 3.40625-.550781 6.285156-2.816407 7.621094-6 5.632812-13.40625 18.667969-22.070313 33.207031-22.070313 11.746094 0 22.789063 5.765625 29.535157 15.425782 3.070312 4.398437 9.066406 5.585937 13.585937 2.699218 5.785156-3.703125 12.480469-5.660156 19.359375-5.660156 19.851562 0 36 16.148438 36 36 0 3.75-.589844 7.421875-1.699219 10.910156-.03125-1.324218-.066406-2.648437-.066406-3.976562v-2.132813c0-5.523437-4.480469-10-10-10h-61.019531c-5.523438 0-10 4.476563-10 10v2.132813c0 4.417968-.191406 8.835937-.527344 13.238281-4.757812 2.226563-9.847656 3.359375-15.167969 3.359375-5.316406 0-10.414062-1.136719-15.167969-3.359375-.335937-4.40625-.523437-8.820313-.523437-13.238281v-2.132813c0-5.523437-4.480469-10-10-10h-61.023437c-5.519532 0-10 4.476563-10 10v2.132813c0 7.433594-.492188 14.863281-1.445313 22.238281-9.246094-6.644531-14.890625-17.339844-14.890625-29.171875zm191.253906 30.800781h-44c.660156-5.3125 1.109375-10.652343 1.328125-16h41.34375c.21875 5.347657.671875 10.6875 1.328125 16zm-66.125 11.382813c-2.628906 12.789062-6.679687 25.328125-12.078125 37.386718-5.394531-12.046874-9.441406-24.578124-12.070312-37.355468 3.925781.863281 7.953125 1.316406 12.070312 1.316406 4.070313 0 8.121094-.472656 12.078125-1.347656zm-46.277344-11.382813h-44.003906c.660156-5.3125 1.113282-10.652343 1.332032-16h41.339843c.21875 5.347657.671875 10.6875 1.332031 16zm-61.675781 60.730469c6.191407-13.101562 10.917969-26.769531 14.132813-40.730469h51.082031c3.214844 13.960938 7.941406 27.628907 14.132813 40.730469zm112.402344 0c6.191406-13.101562 10.917969-26.769531 14.136719-40.730469h51.078125c3.21875 13.960938 7.945312 27.628907 14.136719 40.730469zm0 0"/><path d="m10.007812 180.003906c2.628907 0 5.210938-1.070312 7.070313-2.933594 1.859375-1.855468 2.929687-4.4375 2.929687-7.066406 0-2.640625-1.070312-5.210937-2.929687-7.070312s-4.441406-2.929688-7.070313-2.929688c-2.628906 0-5.210937 1.066406-7.070312 2.929688-1.859375 1.859375-2.9296875 4.441406-2.9296875 7.070312s1.0703125 5.210938 2.9296875 7.066406c1.859375 1.863282 4.441406 2.933594 7.070312 2.933594zm0 0"/><path d="m107.46875 385.191406c-7.886719-7.886718-20.113281-8.839844-29.058594-2.875l-10.230468-10.230468c-3.054688-3.054688-7.113282-4.734376-11.433594-4.734376-4.320313 0-8.378906 1.679688-11.433594 4.734376l-17.457031 17.457031c-6.304688 6.304687-6.304688 16.5625 0 22.867187l10.230469 10.230469c-5.96875 8.945313-5.011719 21.171875 2.871093 29.058594l53.558594 53.558593c4.492187 4.488282 10.386719 6.730469 16.285156 6.730469 5.894531 0 11.792969-2.242187 16.285157-6.730469l33.9375-33.941406c8.980468-8.980468 8.980468-23.589844 0-32.566406zm-50.722656 3.746094 7.203125 7.203125-12.039063 12.042969-7.207031-7.207032zm90.136718 68.234375-33.941406 33.941406c-1.175781 1.183594-3.101562 1.183594-4.28125 0l-53.558594-53.558593c-1.179687-1.179688-1.179687-3.101563 0-4.28125l33.941407-33.941407c.589843-.589843 1.367187-.886719 2.140625-.886719.777344 0 1.554687.296876 2.144531.886719l53.558594 53.558594c1.175781 1.179687 1.175781 3.101563-.003907 4.28125zm0 0"/><path d="m478.5 436.460938h-19.1875c-6.519531-11.070313-18.558594-18.515626-32.308594-18.515626h-46.839844c-20.667968 0-37.480468 16.8125-37.480468 37.476563v19.101563c0 20.667968 16.8125 37.480468 37.480468 37.480468h46.839844c13.75 0 25.789063-7.449218 32.308594-18.515625h19.1875c8.917969 0 16.171875-7.253906 16.171875-16.171875v-24.6875c0-8.914062-7.253906-16.167968-16.171875-16.167968zm-51.496094 55.542968h-46.839844c-9.640624 0-17.480468-7.84375-17.480468-17.480468v-19.101563c0-9.636719 7.839844-17.476563 17.480468-17.476563h46.839844c9.640625 0 17.480469 7.839844 17.480469 17.476563v19.101563c0 9.636718-7.839844 17.480468-17.480469 17.480468zm47.667969-18.515625h-10.1875v-17.027343h10.1875zm0 0"/><path d="m243.269531 398.699219c-.683593-8.625-4.6875-16.46875-11.269531-22.085938-6.582031-5.613281-14.957031-8.328125-23.585938-7.648437-8.625.6875-16.46875 4.6875-22.085937 11.273437-5.617187 6.582031-8.332031 14.957031-7.648437 23.582031.683593 8.625 4.6875 16.46875 11.269531 22.085938 5.917969 5.046875 13.28125 7.75 20.972656 7.75.867187 0 1.738281-.03125 2.613281-.101562 8.625-.683594 16.46875-4.6875 22.085938-11.269532 5.613281-6.585937 8.328125-14.960937 7.648437-23.585937zm-22.867187 10.605469c-2.148438 2.519531-5.148438 4.050781-8.449219 4.3125-3.304687.265624-6.503906-.777344-9.023437-2.925782-2.519532-2.148437-4.050782-5.148437-4.3125-8.453125-.261719-3.300781.777343-6.503906 2.925781-9.023437 2.148437-2.515625 5.152343-4.046875 8.453125-4.308594.332031-.027344.667968-.042969 1-.042969 2.941406 0 5.757812 1.035157 8.023437 2.96875 2.519531 2.148438 4.046875 5.148438 4.3125 8.449219.261719 3.300781-.777343 6.503906-2.929687 9.023438zm0 0"/><path d="m373.277344 381c0-5.519531-4.476563-10-10-10h-24.394532c-5.519531 0-10 4.480469-10 10 0 5.523438 4.480469 10 10 10h24.394532c5.523437 0 10-4.476562 10-10zm0 0"/><path d="m305.835938 371c-2.640626 0-5.210938 1.070312-7.082032 2.929688-1.859375 1.863281-2.917968 4.441406-2.917968 7.070312 0 2.632812 1.058593 5.210938 2.917968 7.070312 1.871094 1.859376 4.453125 2.929688 7.082032 2.929688 2.628906 0 5.199218-1.070312 7.070312-2.929688 1.859375-1.859374 2.929688-4.4375 2.929688-7.070312 0-2.628906-1.070313-5.207031-2.929688-7.070312-1.859375-1.859376-4.441406-2.929688-7.070312-2.929688zm0 0"/><path d="m253.882812 473h-8.507812c-5.519531 0-10 4.480469-10 10 0 5.523438 4.480469 10 10 10h8.507812c5.523438 0 10-4.476562 10-10 0-5.519531-4.476562-10-10-10zm0 0"/><path d="m42.066406 241.363281c2.558594 0 5.121094-.976562 7.070313-2.933593l2.363281-2.359376c3.902344-3.90625 3.902344-10.238281-.003906-14.144531-3.90625-3.902343-10.238282-3.902343-14.140625.003907l-2.363281 2.363281c-3.902344 3.90625-3.902344 10.238281.003906 14.140625 1.953125 1.953125 4.511718 2.929687 7.070312 2.929687zm0 0"/><path d="m291.585938 233.46875c2.558593 0 5.117187-.976562 7.070312-2.925781 3.902344-3.90625 3.90625-10.238281 0-14.144531l-4.550781-4.554688c-3.90625-3.902344-10.238281-3.902344-14.144531 0s-3.90625 10.234375-.003907 14.140625l4.554688 4.554687c1.953125 1.953126 4.511719 2.929688 7.074219 2.929688zm0 0"/><path d="m112.078125 286.394531 2.667969-2.664062c3.902344-3.90625 3.902344-10.238281 0-14.144531-3.90625-3.902344-10.238282-3.902344-14.144532 0l-2.667968 2.667968c-3.902344 3.90625-3.902344 10.234375 0 14.140625 1.953125 1.953125 4.511718 2.929688 7.074218 2.929688 2.558594 0 5.117188-.976563 7.070313-2.929688zm0 0"/><path d="m362.339844 278.085938c2.558594 0 5.117187-.976563 7.070312-2.925782l4.621094-4.625c3.90625-3.90625 3.90625-10.238281 0-14.144531-3.90625-3.902344-10.234375-3.902344-14.140625 0l-4.625 4.625c-3.90625 3.90625-3.90625 10.238281 0 14.144531 1.953125 1.949219 4.511719 2.925782 7.074219 2.925782zm0 0"/><path d="m217.007812 266.128906c3.304688 0 6.394532-1.632812 8.257813-4.363281s2.257813-6.207031 1.050781-9.285156l-11.402344-29.125c-.757812-1.9375-2.101562-3.589844-3.839843-4.726563l-25.265625-16.503906c-3.074219-2.007812-7-2.171875-10.226563-.425781-3.230469 1.75-5.242187 5.125-5.242187 8.796875v45.632812c0 5.519532 4.480468 10 10 10zm-26.667968-37.15625 7.117187 4.652344 4.894531 12.503906h-12.011718zm0 0"/><path d="m432.003906 272.628906c2.5625 0 5.117188-.976562 7.070313-2.929687l24.617187-24.613281c3.902344-3.90625 3.902344-10.238282 0-14.144532l-24.617187-24.617187c-1.875-1.875-4.417969-2.925781-7.070313-2.925781s-5.195312 1.050781-7.070312 2.925781l-24.613282 24.617187c-3.90625 3.90625-3.90625 10.238282 0 14.144532l24.613282 24.613281c1.953125 1.953125 4.511718 2.929687 7.070312 2.929687zm0-45.089844 10.476563 10.472657-10.476563 10.476562-10.472656-10.476562zm0 0"/></svg>