<?xml version="1.0" encoding="iso-8859-1"?>
<!-- Generator: Adobe Illustrator 19.0.0, SVG Export Plug-In . SVG Version: 6.00 Build 0)  -->
<svg version="1.1" id="Capa_1" xmlns="http://www.w3.org/2000/svg" xmlns:xlink="http://www.w3.org/1999/xlink" x="0px" y="0px"
	 viewBox="0 0 512 512" style="enable-background:new 0 0 512 512;" xml:space="preserve">
<path style="fill:#183756;" d="M289.722,0C167.157,0,67.444,99.714,67.446,222.278c0,43.374,12.5,83.879,34.069,118.123
	l-87.023,87.023c-19.322,19.322-19.323,50.763,0,70.085c19.323,19.322,50.763,19.322,70.085,0l87.023-87.023
	c34.245,21.569,74.748,34.069,118.123,34.069C412.286,444.555,512,344.841,512,222.277C512.001,99.714,412.287-0.001,289.722,0z"/>
<path style="fill:#DEF4FE;" d="M174.143,337.857c-30.872-30.872-47.874-71.919-47.874-115.58c0-43.66,17.001-84.706,47.874-115.579
	c30.872-30.872,71.919-47.874,115.579-47.874c90.128,0,163.453,73.325,163.453,163.453l0,0c0,43.66-17.002,84.706-47.874,115.579
	c-30.872,30.872-71.919,47.874-115.579,47.874C246.062,385.731,205.016,368.729,174.143,337.857z"/>
<g>
	<path style="fill:#1A6CA7;" d="M258.713,224.216c6.12-6.12,6.12-16.042,0-22.162c-2.926-2.926-6.723-4.437-10.556-4.564v-24.993
		c0-3.027,1.888-4.57,3.013-5.219c1.125-0.649,3.404-1.513,6.026,0.001c7.496,4.327,17.079,1.759,21.406-5.735
		c4.328-7.495,1.759-17.073-5.735-21.407c-11.699-6.754-25.669-6.754-37.367,0c-11.7,6.755-18.685,18.853-18.684,32.361v24.993
		c-3.833,0.127-7.63,1.639-10.556,4.564c-6.12,6.12-6.12,16.042,0,22.162l15.145,15.145c6.12,6.12,16.042,6.12,22.162,0
		L258.713,224.216z"/>
	<path style="fill:#1A6CA7;" d="M323.17,291.613l6.757-25.889c2.187-8.375-2.831-16.936-11.205-19.12l-25.889-6.758
		c-8.374-2.186-16.935,2.831-19.12,11.205c-1.399,5.359,0.164,10.787,3.659,14.579l-20.174,11.647c-2.622,1.514-4.902,0.65-6.027,0
		c-1.126-0.648-3.014-2.192-3.014-5.218c0-8.654-7.016-15.671-15.671-15.671c-8.654,0-15.671,7.016-15.671,15.671
		c0,10.118,3.918,19.444,10.8,26.327c2.307,2.307,4.947,4.34,7.882,6.034c11.7,6.755,25.669,6.755,37.369,0l20.305-11.723
		c0.775,2.273,2.061,4.349,3.763,6.051c1.903,1.903,4.322,3.341,7.115,4.07C312.424,305.004,320.984,299.988,323.17,291.613z"/>
	<path style="fill:#1A6CA7;" d="M286.657,179.687l5.989,22.948c0.729,2.793,2.167,5.211,4.07,7.115
		c3.804,3.804,9.469,5.547,15.05,4.091c4.881-1.274,8.606-4.72,10.445-9.025l21.209,12.244c2.622,1.511,3.014,3.919,3.013,5.219
		c0,1.299-0.392,3.705-3.013,5.218c-7.495,4.327-10.064,13.911-5.737,21.407c0.704,1.217,1.545,2.306,2.495,3.255
		c4.892,4.892,12.635,6.105,18.911,2.481c11.7-6.755,18.684-18.852,18.685-32.361c0.001-13.51-6.983-25.604-18.684-32.363
		l-20.918-12.077c2.109-3.492,2.869-7.797,1.757-12.056c-2.186-8.372-10.747-13.391-19.12-11.205l-22.948,5.989
		C289.488,162.753,284.471,171.313,286.657,179.687z"/>
</g>
<path style="fill:#091E33;" d="M446.821,65.175L14.489,497.506c0.001,0.001,0.002,0.002,0.002,0.002
	c19.323,19.323,50.764,19.323,70.086,0l87.023-87.023c34.245,21.569,74.748,34.069,118.123,34.069
	C412.286,444.555,512,344.841,512,222.277C512.001,160.995,487.071,105.424,446.821,65.175z"/>
<path style="fill:#B3E4FD;" d="M405.245,106.751L174.141,337.854c0.001,0.001,0.002,0.001,0.002,0.002
	c30.872,30.872,71.919,47.874,115.58,47.874c43.66,0,84.706-17.001,115.579-47.874c30.872-30.872,47.874-71.919,47.874-115.579
	C453.176,177.213,434.843,136.348,405.245,106.751z"/>
<g>
	<path style="fill:#183756;" d="M359.091,189.916l-20.918-12.077c1.124-1.861,1.849-3.953,2.128-6.145l-40.469,40.469
		c3.47,2.053,7.726,2.776,11.935,1.677c4.881-1.274,8.606-4.72,10.445-9.025l21.209,12.244c2.622,1.511,3.014,3.919,3.013,5.219
		c0,1.299-0.392,3.705-3.013,5.218c-7.495,4.327-10.064,13.911-5.737,21.407c0.704,1.217,1.545,2.306,2.495,3.255
		c4.892,4.892,12.635,6.105,18.911,2.481c11.7-6.755,18.684-18.852,18.685-32.361C377.776,208.768,370.792,196.674,359.091,189.916z
		"/>
	<path style="fill:#183756;" d="M329.928,265.724c2.187-8.375-2.831-16.936-11.205-19.12l-25.89-6.758
		c-8.374-2.186-16.935,2.831-19.12,11.205c-1.399,5.359,0.164,10.787,3.659,14.579l-20.174,11.647c-2.622,1.514-4.902,0.65-6.027,0
		c-1.126-0.648-3.014-2.192-3.014-5.218c0-2.401-0.556-4.666-1.521-6.7l-25.056,25.056c1.633,2.902,3.652,5.585,6.036,7.969
		c2.307,2.307,4.947,4.34,7.882,6.034c11.7,6.755,25.669,6.755,37.369,0l20.305-11.723c0.775,2.273,2.061,4.349,3.763,6.051
		c1.903,1.903,4.322,3.341,7.115,4.07c8.374,2.186,16.935-2.831,19.12-11.205L329.928,265.724z"/>
</g>
<g>
</g>
<g>
</g>
<g>
</g>
<g>
</g>
<g>
</g>
<g>
</g>
<g>
</g>
<g>
</g>
<g>
</g>
<g>
</g>
<g>
</g>
<g>
</g>
<g>
</g>
<g>
</g>
<g>
</g>
</svg>
