<?xml version="1.0" encoding="UTF-8" standalone="no"?>
<!-- Created with Inkscape (http://www.inkscape.org/) -->

<svg
   xmlns:dc="http://purl.org/dc/elements/1.1/"
   xmlns:cc="http://creativecommons.org/ns#"
   xmlns:rdf="http://www.w3.org/1999/02/22-rdf-syntax-ns#"
   xmlns:svg="http://www.w3.org/2000/svg"
   xmlns="http://www.w3.org/2000/svg"
   xmlns:xlink="http://www.w3.org/1999/xlink"
   xmlns:sodipodi="http://sodipodi.sourceforge.net/DTD/sodipodi-0.dtd"
   xmlns:inkscape="http://www.inkscape.org/namespaces/inkscape"
   width="6.2796392mm"
   height="8.412652mm"
   viewBox="0 0 22.25069 29.808609"
   id="svg4183"
   version="1.1"
   inkscape:version="0.91 r13725"
   sodipodi:docname="waterDroplet2.svg">
  <defs
     id="defs4185">
    <linearGradient
       inkscape:collect="always"
       id="linearGradient5357">
      <stop
         style="stop-color:#00ffff;stop-opacity:1;"
         offset="0"
         id="stop5359" />
      <stop
         style="stop-color:#1d627b;stop-opacity:1"
         offset="1"
         id="stop5361" />
    </linearGradient>
    <radialGradient
       inkscape:collect="always"
       xlink:href="#linearGradient5357"
       id="radialGradient5363"
       cx="481.20825"
       cy="298.79883"
       fx="481.20825"
       fy="298.79883"
       r="11.125345"
       gradientTransform="matrix(2.2779115,-0.01954274,0.01497,1.7449089,-618.72282,-211.25988)"
       gradientUnits="userSpaceOnUse" />
  </defs>
  <sodipodi:namedview
     id="base"
     pagecolor="#ffffff"
     bordercolor="#666666"
     borderopacity="1.0"
     inkscape:pageopacity="0.0"
     inkscape:pageshadow="2"
     inkscape:zoom="15.839192"
     inkscape:cx="8.4562623"
     inkscape:cy="13.47327"
     inkscape:document-units="px"
     inkscape:current-layer="g4168"
     showgrid="false"
     fit-margin-top="0"
     fit-margin-left="0"
     fit-margin-right="0"
     fit-margin-bottom="0"
     inkscape:window-width="1366"
     inkscape:window-height="706"
     inkscape:window-x="-8"
     inkscape:window-y="-8"
     inkscape:window-maximized="1" />
  <metadata
     id="metadata4188">
    <rdf:RDF>
      <cc:Work
         rdf:about="">
        <dc:format>image/svg+xml</dc:format>
        <dc:type
           rdf:resource="http://purl.org/dc/dcmitype/StillImage" />
        <dc:title></dc:title>
      </cc:Work>
    </rdf:RDF>
  </metadata>
  <g
     inkscape:label="Layer 1"
     inkscape:groupmode="layer"
     id="layer1"
     transform="translate(-720.46167,-0.61197082)">
    <g
       id="g4206"
       transform="translate(0,0.50507627)">
      <g
         id="g4201">
        <g
           transform="translate(251.00908,-281.20604)"
           style="display:inline"
           id="g4168">
          <path
             sodipodi:nodetypes="cccccccccccc"
             inkscape:connector-curvature="0"
             id="path3365"
             d="m 483.6042,281.70351 -0.12036,0.0786 z m -0.78779,0.71641 c -3.36529,3.79949 -7.32325,7.08526 -10.247,11.26467 -1.65551,2.36182 -3.03696,5.18908 -2.72128,8.15119 0.44516,4.25379 3.93151,7.98578 8.16164,8.66813 4.29236,0.93521 9.1221,-0.62492 11.82226,-4.14649 1.94624,-2.9169 1.87473,-6.7682 0.62101,-9.94164 -1.63066,-4.39997 -5.05227,-7.8187 -6.91902,-12.09542 -0.39255,-0.80855 -0.67398,-2.00663 0.13981,-2.65825 z"
             style="fill:url(#radialGradient5363);stroke:#000000;stroke-width:0.69999999;stroke-linecap:round;stroke-linejoin:round;stroke-miterlimit:4;stroke-dasharray:none;fill-opacity:1" />
          <path
             inkscape:connector-curvature="0"
             id="path3348"
             d="m 479.4421,305.20647 c -0.66284,-0.24176 -1.39192,-0.40704 -2.066,-0.63653 -0.77892,-0.24908 -1.50527,-0.55969 -2.13341,-0.93844 -0.60129,-0.33814 -1.15821,-0.71569 -1.85332,-0.98147 -0.32327,-0.0905 -0.77906,0.0516 -0.83488,0.28541 -0.25557,0.46059 -0.0726,0.93774 0.0684,1.38627 0.34118,0.96599 1.13383,1.88305 2.40877,2.45924 1.24909,0.55109 3.12987,0.5258 4.3972,-0.11736 0.43205,-0.21905 0.79098,-0.5694 0.67598,-0.91756 -0.0811,-0.2342 -0.36534,-0.40808 -0.6627,-0.53956 z"
             style="fill:#ffffff;stroke:#000000;stroke-width:0.1;stroke-miterlimit:4;stroke-dasharray:none" />
        </g>
      </g>
    </g>
  </g>
</svg>
